<?xml version="1.0" ?><!DOCTYPE svg  PUBLIC '-//W3C//DTD SVG 1.1//EN'  'http://www.w3.org/Graphics/SVG/1.1/DTD/svg11.dtd'><svg enable-background="new 0 0 489.597 524.424" height="524.424" id="レイヤー_1" overflow="visible" version="1.1" viewBox="0 0 489.597 524.424" width="489.597" xml:space="preserve" xmlns="http://www.w3.org/2000/svg" xmlns:xlink="http://www.w3.org/1999/xlink"><g id="電卓2"><path d="M128.303,80.167h192.2c32.529,0,58.9,26.37,58.9,58.899v312.2c0,32.529-26.371,58.9-58.9,58.9h-192.2   c-32.529,0-58.9-26.371-58.9-58.9v-312.2C69.403,106.537,95.774,80.167,128.303,80.167z" opacity="0.39"/><path d="M148.303,58.5h192.2   c32.529,0,58.9,26.37,58.9,58.899v312.2c0,32.53-26.371,58.899-58.9,58.899h-192.2c-32.529,0-58.9-26.369-58.9-58.899V117.4   C89.403,84.87,115.774,58.5,148.303,58.5z" fill="#737373" stroke="#000000" stroke-linejoin="round" stroke-width="18"/><rect fill="#CFCFCF" height="76.667" stroke="#000000" stroke-linejoin="round" stroke-width="13" width="230" x="129.07" y="91.833"/><rect fill="#A8A8A8" height="36.258" stroke="#000000" stroke-linejoin="round" stroke-width="8" width="41.379" x="312.412" y="201.26"/><g><rect fill="#A8A8A8" height="36.257" stroke="#000000" stroke-linejoin="round" stroke-width="8" width="41.379" x="312.412" y="237.518"/><rect fill="#A8A8A8" height="36.257" stroke="#000000" stroke-linejoin="round" stroke-width="8" width="41.379" x="312.412" y="273.775"/><rect fill="#A8A8A8" height="36.258" stroke="#000000" stroke-linejoin="round" stroke-width="8" width="41.379" x="312.412" y="310.031"/></g><g><rect fill="#A8A8A8" height="36.258" stroke="#000000" stroke-linejoin="round" stroke-width="8" width="41.38" x="255.364" y="201.26"/><rect fill="#A8A8A8" height="36.258" stroke="#000000" stroke-linejoin="round" stroke-width="8" width="41.379" x="198.317" y="201.26"/><rect fill="#A8A8A8" height="36.258" stroke="#000000" stroke-linejoin="round" stroke-width="8" width="41.38" x="141.27" y="201.26"/></g><rect fill="#A8A8A8" height="36.257" stroke="#000000" stroke-linejoin="round" stroke-width="8" width="41.379" x="312.412" y="346.29"/><rect fill="#A8A8A8" height="57.186" stroke="#000000" stroke-linejoin="round" stroke-width="8" width="42.348" x="311.283" y="395.357"/><g><rect fill="#A8A8A8" height="36.257" stroke="#000000" stroke-linejoin="round" stroke-width="8" width="41.379" x="255.646" y="237.518"/><rect fill="#A8A8A8" height="36.257" stroke="#000000" stroke-linejoin="round" stroke-width="8" width="41.379" x="255.646" y="273.775"/><rect fill="#A8A8A8" height="36.258" stroke="#000000" stroke-linejoin="round" stroke-width="8" width="41.379" x="255.646" y="310.031"/></g><rect fill="#A8A8A8" height="36.257" stroke="#000000" stroke-linejoin="round" stroke-width="8" width="41.38" x="255.646" y="346.29"/><g><rect fill="#A8A8A8" height="36.257" stroke="#000000" stroke-linejoin="round" stroke-width="8" width="41.379" x="198.554" y="237.518"/><rect fill="#A8A8A8" height="36.257" stroke="#000000" stroke-linejoin="round" stroke-width="8" width="41.379" x="198.554" y="273.775"/><rect fill="#A8A8A8" height="36.258" stroke="#000000" stroke-linejoin="round" stroke-width="8" width="41.379" x="198.554" y="310.031"/></g><rect fill="#A8A8A8" height="36.257" stroke="#000000" stroke-linejoin="round" stroke-width="8" width="41.379" x="198.554" y="346.29"/><g><rect fill="#A8A8A8" height="36.257" stroke="#000000" stroke-linejoin="round" stroke-width="8" width="41.38" x="141.789" y="237.518"/><rect fill="#A8A8A8" height="36.257" stroke="#000000" stroke-linejoin="round" stroke-width="8" width="41.38" x="141.789" y="273.775"/><rect fill="#A8A8A8" height="36.258" stroke="#000000" stroke-linejoin="round" stroke-width="8" width="41.38" x="141.789" y="310.031"/></g><rect fill="#A8A8A8" height="36.257" stroke="#000000" stroke-linejoin="round" stroke-width="8" width="41.38" x="141.789" y="346.29"/><rect fill="#A8A8A8" height="43.332" stroke="#000000" stroke-linejoin="round" stroke-width="8" width="92.5" x="144.189" y="408.167"/><rect fill="none" height="45.554" stroke="#000000" stroke-linejoin="round" stroke-width="8" width="41.38" x="255.646" y="409.164"/><path d="M319.332,111h14.727   c2.492,0,4.512,2.02,4.512,4.512v34.726c0,2.492-2.02,4.513-4.512,4.513h-14.727c-2.492,0-4.512-2.021-4.512-4.513v-34.726   C314.82,113.02,316.839,111,319.332,111z" fill="none" stroke="#000000" stroke-linejoin="round" stroke-width="7"/><line fill="none" stroke="#000000" stroke-linejoin="round" stroke-width="7" x1="314.82" x2="338.57" y1="139.75" y2="121"/></g></svg>